Coordinates
version=1
nRows=20
nColumns=26
inDegrees=yes

Units are S.I. units (second, meters, Newtons, ...)
If the header above contains a line with 'inDegrees', this indicates whether rotational values are in degrees (yes) or radians (no).

endheader
time	pelvis_tilt	pelvis_list	pelvis_rotation	pelvis_tx	pelvis_ty	pelvis_tz	hip_flexion_r	hip_adduction_r	hip_rotation_r	knee_angle_r	knee_angle_r_beta	ankle_angle_r	subtalar_angle_r	mtp_angle_r	hip_flexion_l	hip_adduction_l	hip_rotation_l	knee_angle_l	knee_angle_l_beta	ankle_angle_l	subtalar_angle_l	mtp_angle_l	lumbar_extension	lumbar_bending	lumbar_rotation
      1.00800000	    -10.97166806	      9.56330435	     -2.48042014	      1.98001560	      0.96959799	      0.19265757	    -14.65940634	    -13.93122356	    -20.81033068	     23.60976017	      0.41206805	    -11.22682892	      0.00000000	     38.59814544	     61.20979705	      8.67446503	     -3.01787824	    112.15646946	      1.95749967	     24.37295917	      0.00000000	     53.05556270	     -2.06951625	    -10.94392380	     16.50008869
      1.01200000	    -11.67265232	     10.45642067	     -1.95241590	      2.00864413	      0.97065514	      0.19235509	    -15.82752933	    -14.67704401	    -21.95598261	     22.25066540	      0.38834737	    -14.71663844	      0.00000000	     40.23095580	     63.03842475	      9.04478539	     -4.37213046	    109.54419863	      1.91190694	     24.20288976	      0.00000000	     52.89267073	     -0.95430284	    -12.16450636	     16.96349194
      1.01600000	    -12.11732625	     11.11249099	     -1.33738148	      2.03709964	      0.97221269	      0.19227002	    -17.13734908	    -15.11347007	    -23.27910249	     21.17949876	      0.36965199	    -18.20033024	      0.00000000	     42.14732526	     64.39876065	      9.37525525	     -5.47485147	    106.75617903	      1.86324682	     23.84035507	      0.00000000	     52.47880815	     -0.23946374	    -13.19292004	     17.18959887
      1.02000000	    -12.47751109	     11.49878045	     -0.81833226	      2.06574347	      0.97381933	      0.19222494	    -18.42546571	    -15.18019450	    -24.12928640	     20.27802684	      0.35391833	    -19.41659170	      0.00000000	     47.36925834	     65.39134499	      9.51035427	     -6.38072899	    103.78291469	      1.81135357	     22.93970919	      0.00000000	     48.79892907	      0.39902324	    -13.90932785	     17.54026149
      1.02400000	    -12.97164946	     11.84967487	     -0.28771471	      2.09394571	      0.97515177	      0.19225814	    -19.37153949	    -15.22278662	    -24.64895723	     19.80565115	      0.34567382	    -20.54718698	      0.00000000	     47.70585356	     66.41708780	      9.56142131	     -7.38487714	    100.78174210	      1.75897323	     22.92939790	      0.00000000	     48.84222450	      1.13333556	    -14.62643905	     17.77813527
      1.02800000	    -13.30988785	     11.93837084	      0.13358490	      2.12201678	      0.97652533	      0.19225381	    -20.33186945	    -14.96586990	    -24.59312023	     19.53060893	      0.34087343	    -21.07285412	      0.00000000	     47.80492129	     67.07837803	      9.48424742	     -8.17725446	     97.68018927	      1.70484092	     22.92694395	      0.00000000	     48.70608702	      1.67534938	    -15.01872992	     18.16138534
      1.03200000	    -13.62118166	     12.07955283	      0.49666342	      2.14973187	      0.97779028	      0.19240872	    -21.12730088	    -14.77883919	    -24.05097422	     19.81884874	      0.34590416	    -21.45124501	      0.00000000	     47.74046137	     67.53527376	      9.31915491	     -9.18282525	     94.39507112	      1.64750479	     22.74305979	      0.00000000	     48.07876625	      2.14201101	    -15.47647946	     18.49564979
      1.03600000	    -13.81202206	     11.87840494	      0.81341854	      2.17735170	      0.97902814	      0.19238696	    -21.81419562	    -14.27320230	    -22.90651620	     20.65749111	      0.36054124	    -21.04372896	      0.00000000	     46.53371910	     67.59241763	      9.04201067	     -9.86233919	     90.73961300	      1.58370501	     21.16023486	      0.00000000	     40.17930119	      2.44817445	    -15.52704072	     18.79066700
      1.04000000	    -13.92806172	     11.53997790	      1.03643783	      2.20470915	      0.98026474	      0.19229677	    -22.26847470	    -13.62224876	    -21.16698802	     22.02711514	      0.38444568	    -20.11172126	      0.00000000	     46.06329643	     67.54868253	      8.71123130	    -10.45203447	     87.30855167	      1.52382169	     21.26091196	      0.00000000	     40.01383744	      2.66339721	    -15.39899527	     19.06997601
      1.04400000	    -14.02179050	     11.04316555	      1.18606799	      2.23190317	      0.98156496	      0.19218916	    -22.49960962	    -12.78980012	    -18.94529051	     23.79646696	      0.41532670	    -19.63056688	      0.00000000	     45.72336145	     67.34343672	      8.31934335	    -10.90559699	     83.76389045	      1.46195568	     21.19638692	      0.00000000	     39.70262735	      2.81373380	    -15.08196719	     19.43455636
      1.04800000	    -14.07237045	     10.50272881	      1.35845965	      2.25895344	      0.98287327	      0.19198954	    -22.54413568	    -11.89703128	    -16.70566469	     26.04519350	      0.45457438	    -19.40292495	      0.00000000	     46.17014584	     66.86268079	      7.97029686	    -11.29429022	     79.81454278	      1.39302656	     19.87741927	      0.00000000	     33.86967174	      2.89686095	    -14.70880927	     19.70644677
      1.05200000	    -14.09578155	      9.94574111	      1.48203168	      2.28581178	      0.98423158	      0.19167557	    -22.47912579	    -10.95883080	    -14.32989066	     28.51124252	      0.49761506	    -19.88323857	      0.00000000	     46.14471387	     66.32200519	      7.66166333	    -11.68603782	     76.03872424	      1.32712610	     19.74394158	      0.00000000	     33.88703404	      2.92451444	    -14.29662156	     19.97512745
      1.05600000	    -13.97640409	      9.30137378	      1.69477912	      2.31262211	      0.98573623	      0.19144779	    -22.41058998	     -9.90279445	    -12.37192497	     31.30031569	      0.54629357	    -20.75830038	      0.00000000	     46.30096128	     65.47416665	      7.45386704	    -11.85089501	     72.19089206	      1.25996876	     19.38495656	      0.00000000	     33.86715352	      2.72996038	    -13.82605426	     20.15180220
      1.06000000	    -13.92929750	      8.76561882	      1.87228207	      2.33936476	      0.98713689	      0.19106716	    -22.01907513	     -9.02232746	    -10.68859069	     34.61844559	      0.60420586	    -20.99110618	      0.00000000	     48.77699373	     64.52142512	      7.25131595	    -12.27641488	     68.00465142	      1.18690507	     17.60652069	      0.00000000	     28.70696582	      2.61766984	    -13.45663336	     20.33593255
      1.06400000	    -13.71527109	      8.26809952	      2.15555706	      2.36615223	      0.98857573	      0.19070796	    -21.81993254	     -8.11796602	     -9.39658584	     37.90740954	      0.66160911	    -21.97263807	      0.00000000	     48.86691252	     63.37483528	      7.22276673	    -12.63180508	     64.14880018	      1.11960777	     16.76222881	      0.00000000	     29.03115737	      2.28475091	    -13.12141470	     20.46042647
      1.06800000	    -13.48601930	      7.93753343	      2.32265883	      2.39293763	      0.98987694	      0.19013250	    -21.51751512	     -7.49927309	     -8.37023051	     41.46404408	      0.72368409	    -22.48693949	      0.00000000	     49.12857686	     62.15198393	      7.23386916	    -13.23331732	     60.34005899	      1.05313270	     15.67806320	      0.00000000	     29.01144803	      1.92904014	    -12.93675045	     20.58756760
      1.07200000	    -13.12587864	      7.63369954	      2.66817399	      2.41984454	      0.99117970	      0.18947433	    -21.37609770	     -6.86806428	     -7.77443537	     45.03453674	      0.78600094	    -22.66473658	      0.00000000	     49.36699873	     60.70866390	      7.41292998	    -13.70928955	     56.62855553	      0.98835474	     14.60222317	      0.00000000	     28.72856319	      1.39490312	    -12.79062255	     20.54845503
      1.07600000	    -12.71112771	      7.34704092	      3.01916249	      2.44662759	      0.99248345	      0.18883838	    -21.24382515	     -6.25739014	     -7.38456077	     48.66315869	      0.84933234	    -22.48216243	      0.00000000	     49.44423466	     59.18450202	      7.63060066	    -14.18015187	     53.07689472	      0.92636657	     13.40221529	      0.00000000	     28.49068631	      0.79665750	    -12.63264068	     20.42321707
      1.08000000	    -12.27203891	      7.08876656	      3.44221187	      2.47359747	      0.99362755	      0.18809232	    -21.09605944	     -5.72205738	     -7.27610681	     52.39696838	      0.91449962	    -21.58438919	      0.00000000	     51.25723877	     57.49122914	      7.89460994	    -14.68687747	     49.35583684	      0.86142186	     11.08311379	      0.00000000	     21.81332916	      0.16824378	    -12.51145520	     20.21506883
      1.08400000	    -11.77405351	      6.95439496	      4.01272739	      2.50021248	      0.99474295	      0.18729988	    -21.03999414	     -5.33026086	     -7.58097599	     56.10691817	      0.97925046	    -21.17147886	      0.00000000	     50.90404503	     55.84411590	      8.45035731	    -14.91010979	     46.23524481	      0.80695725	     10.09004383	      0.00000000	     22.32679689	     -0.59543602	    -12.54032818	     19.77194678
